<svg viewBox="0 0 100 40" fill="none" xmlns="http://www.w3.org/2000/svg"
    class="jss10">
    <path
        d="M92 .004L12.423 0C5.531 0 .003 5.567.003 12.496L0 40l79.56-.008c6.892 0 12.44-5.567 12.44-12.496V.004z"
        fill="#7AB929"></path>
    <path
        d="M26.806 11h-.101a6.776 6.776 0 00-3.108.735C23.249 11.257 22.701 11 22 11c-.707 0-1.253.254-1.596.728A6.812 6.812 0 0017.296 11h-.101c-1.837 0-3.429.629-4.732 1.867-1.302 1.24-1.963 2.755-1.963 4.503v2.654c0 1.748.66 3.263 1.963 4.503 1.303 1.239 2.894 1.867 4.732 1.867h.101c.959 0 1.872-.186 2.728-.554v1.265c0 .518.19.968.575 1.347.377.359.861.548 1.4.548.49 0 .93-.155 1.317-.468.355-.3.593-.667.659-1.115.013-.103.016-.208.016-.311v-1.261c.849.365 1.757.55 2.713.55h.102c1.837 0 3.428-.629 4.731-1.868 1.303-1.24 1.963-2.754 1.963-4.502V17.37c0-1.748-.66-3.262-1.963-4.502-1.303-1.24-2.894-1.868-4.73-1.868zm0 11.62h-.101c-.753 0-1.379-.249-1.916-.76-.537-.51-.797-1.111-.797-1.836V17.37c0-.726.26-1.326.797-1.836.537-.512 1.163-.76 1.916-.76h.101c.761 0 1.393.248 1.93.76.537.51.797 1.111.797 1.836v2.654c0 .725-.26 1.326-.797 1.836-.537.511-1.17.76-1.93.76zm-9.51 0h-.101c-.762 0-1.393-.249-1.93-.76-.537-.51-.798-1.111-.798-1.836V17.37c0-.726.261-1.326.798-1.836.537-.512 1.168-.76 1.93-.76h.101c.752 0 1.379.248 1.919.763.544.51.809 1.11.809 1.833v2.655c0 .723-.265 1.322-.812 1.836-.537.51-1.164.758-1.916.758zM42.553 11h-.105c-1.907 0-3.559.613-4.91 1.82-1.352 1.208-2.038 2.684-2.038 4.386v2.588c0 1.703.686 3.178 2.038 4.386 1.35 1.207 3.003 1.82 4.91 1.82h.105c1.907 0 3.558-.613 4.91-1.82 1.351-1.208 2.037-2.683 2.037-4.386v-2.588c0-1.703-.686-3.178-2.036-4.386-1.353-1.207-3.005-1.82-4.91-1.82zm0 11.322h-.105c-.792 0-1.447-.242-2.004-.74-.556-.498-.827-1.083-.827-1.788v-2.588c0-.706.27-1.291.827-1.789.557-.497 1.213-.74 2.004-.74h.105c.78 0 1.43.243 1.99.743.566.498.84 1.082.84 1.786v2.588c0 .703-.274 1.287-.842 1.788-.558.498-1.207.74-1.988.74zM58.553 11h-.106a7.295 7.295 0 00-3.23.73c-.359-.476-.925-.73-1.65-.73-.557 0-1.062.187-1.478.554-.392.371-.589.816-.589 1.323V27.11c0 .516.197.966.606 1.351.4.353.904.54 1.46.54a2.14 2.14 0 001.463-.555c.39-.37.588-.82.588-1.337V25.82c.883.366 1.83.55 2.83.55h.106c1.906 0 3.558-.627 4.91-1.865 1.352-1.237 2.037-2.75 2.037-4.494v-2.65c0-1.746-.685-3.258-2.038-4.495C62.111 11.627 60.46 11 58.553 11zm0 11.6h-.106c-.79 0-1.445-.247-2.003-.757-.556-.51-.827-1.11-.827-1.833v-2.65c0-.724.271-1.323.828-1.834.557-.51 1.212-.757 2.002-.757h.106c.78 0 1.43.247 1.991.76.565.51.84 1.11.84 1.831v2.65c0 .722-.275 1.32-.843 1.833-.558.51-1.208.758-1.988.758zM80.888 11.534A2.144 2.144 0 0079.434 11c-.734 0-1.301.248-1.656.711-1-.472-2.08-.711-3.225-.711h-.106c-1.906 0-3.557.613-4.91 1.82-1.351 1.208-2.037 2.684-2.037 4.386v2.588c0 1.702.686 3.178 2.038 4.386C70.89 25.387 72.54 26 74.447 26h.106a7.455 7.455 0 003.226-.71c.355.463.923.71 1.656.71.56 0 1.063-.185 1.453-.534.4-.357.612-.81.612-1.312V12.832c0-.491-.212-.94-.612-1.298zm-6.335 10.788h-.106c-.79 0-1.445-.242-2.002-.74-.557-.498-.828-1.082-.828-1.788v-2.588c0-.705.271-1.29.828-1.788.557-.498 1.212-.74 2.002-.74h.106c.78 0 1.43.242 1.99.742.566.498.84 1.082.84 1.786v2.588c0 .703-.274 1.288-.842 1.788-.557.498-1.208.74-1.988.74z"
        fill="#fff"></path>
</svg>