<svg width="85" height="28" viewBox="0 0 85 28" fill="none" xmlns="http://www.w3.org/2000/svg">
	<g clip-path="url(#clip0)">
		<path
			d="M0.326904 23.961V0.333252H4.6407L5.95359 8.72325L7.20651 0.333252H11.704V23.9627H7.72392V18.1432L6.97479 23.9627H4.69304L3.91664 17.9916L3.90683 23.9833L0.326904 23.961Z"
			fill="#FFED00" />
		<path
			d="M11.3771 0.666667V23.6294H8.05128V13.0372L6.68823 23.63H4.97951L3.59846 13L3.58047 23.6483L0.654266 23.6294V0.666667H4.36177L5.9609 10.8889L7.48752 0.666667H11.3766H11.3771ZM12.0309 0H6.92431L6.8398 0.566111L5.94618 6.55556L5.00786 0.561667L4.92008 0H0V24.2922L0.650449 24.2961L3.57665 24.3144L4.23364 24.3183V23.6489V22.9822L4.32906 23.7161L4.4043 24.295H7.26235L7.33704 23.715L7.39702 23.2483V24.295H12.0314V0H12.0309Z"
			fill="black" />
		<path
			d="M15.0751 23.9627C14.4463 23.962 13.8435 23.7071 13.3988 23.2541C12.9542 22.801 12.7041 22.1868 12.7034 21.5461V6.88883C12.7041 6.24812 12.9542 5.63386 13.3988 5.18081C13.8435 4.72775 14.4463 4.4729 15.0751 4.47217H17.2014C17.8302 4.4729 18.4331 4.72775 18.8777 5.18081C19.3223 5.63386 19.5724 6.24812 19.5732 6.88883V14.9166H16.3018V20.9166H16.4109V16.0694H19.5732V21.5461C19.5724 22.1868 19.3223 22.801 18.8777 23.2541C18.4331 23.7071 17.8302 23.962 17.2014 23.9627H15.0751ZM16.4109 12.3611V7.41661H16.3018V12.3611H16.4109Z"
			fill="#FFED00" />
		<path
			d="M17.2017 4.80558C17.4702 4.80558 17.736 4.85947 17.9841 4.96417C18.2322 5.06886 18.4576 5.22232 18.6474 5.41578C18.8373 5.60923 18.9879 5.8389 19.0906 6.09166C19.1934 6.34442 19.2463 6.61533 19.2463 6.88892V14.5834H15.9749V21.25H16.7382V16.4028H19.2463V21.5461C19.2463 22.0987 19.0308 22.6286 18.6474 23.0193C18.264 23.41 17.7439 23.6295 17.2017 23.6295H15.0753C14.5331 23.6295 14.013 23.41 13.6296 23.0193C13.2461 22.6286 13.0307 22.0987 13.0307 21.5461V6.88892C13.0307 6.61533 13.0836 6.34442 13.1864 6.09166C13.2891 5.8389 13.4397 5.60923 13.6296 5.41578C14.013 5.02508 14.5331 4.80558 15.0753 4.80558H17.2017ZM15.9749 12.6945H16.7382V7.08336H15.9749V12.6945ZM17.2017 4.13892H15.0753C14.3598 4.1398 13.6738 4.42981 13.1679 4.94535C12.662 5.46088 12.3773 6.15984 12.3765 6.88892V21.5461C12.3773 22.2752 12.662 22.9742 13.1679 23.4897C13.6738 24.0052 14.3598 24.2953 15.0753 24.2961H17.2017C17.9172 24.2953 18.6031 24.0052 19.1091 23.4897C19.615 22.9742 19.8997 22.2752 19.9005 21.5461V15.7361H16.6292V15.25H19.9005V6.88892C19.8997 6.15984 19.615 5.46088 19.1091 4.94535C18.6031 4.42981 17.9172 4.1398 17.2017 4.13892Z"
			fill="black" />
		<path d="M20.5547 23.9627V4.47217H25.6073V7.41661H23.8985V23.9627H20.5547Z" fill="#FFED00" />
		<path
			d="M25.2803 4.80558V7.08336H23.5716V23.6295H20.882V4.80558H25.2803ZM25.9346 4.13892H20.2278V24.2961H24.2259V7.75003H25.9346V4.13892Z"
			fill="black" />
		<path
			d="M29.8417 23.9627V23.5872C29.4819 23.8133 29.092 23.9627 28.8151 23.9627H28.4879C27.8591 23.962 27.2563 23.7071 26.8117 23.2541C26.367 22.801 26.1169 22.1868 26.1162 21.5461V15.2522L26.1195 15.2277C26.1309 15.1494 26.1446 15.0711 26.1609 14.9944C26.4799 13.4811 27.7328 12.2166 29.3875 11.7166V7.51828H29.2785V11.5877H26.1162V6.88883C26.1169 6.24812 26.367 5.63386 26.8117 5.18081C27.2563 4.72775 27.8591 4.4729 28.4879 4.47217H30.6143C31.2431 4.4729 31.8459 4.72775 32.2905 5.18081C32.7352 5.63386 32.9853 6.24812 32.986 6.88883V23.9627H29.8417ZM29.3875 21.0183V15.3516H29.2785V21.0183H29.3875Z"
			fill="#FFED00" />
		<path
			d="M30.6143 4.80558C30.8828 4.80558 31.1487 4.85947 31.3968 4.96417C31.6448 5.06886 31.8702 5.22232 32.0601 5.41578C32.2499 5.60923 32.4005 5.8389 32.5033 6.09166C32.606 6.34442 32.6589 6.61533 32.6589 6.88892V23.6295H30.1689V22.9072C29.7561 23.3323 29.1221 23.6295 28.8151 23.6295H28.488C27.9457 23.6295 27.4257 23.41 27.0422 23.0193C26.6588 22.6286 26.4434 22.0987 26.4434 21.5461V15.2778C26.4537 15.2067 26.4663 15.1356 26.481 15.065C26.7934 13.5817 28.0621 12.3867 29.7147 11.9728V7.18503H28.9514V11.2545H26.4434V6.88892C26.4434 6.61533 26.4963 6.34442 26.599 6.09166C26.7018 5.8389 26.8524 5.60923 27.0422 5.41578C27.4257 5.02508 27.9457 4.80558 28.488 4.80558H30.6143ZM28.9514 21.3517H29.7147V15.0184H28.9514V21.3517ZM30.6143 4.13892H28.488C27.7724 4.1398 27.0865 4.42981 26.5805 4.94535C26.0746 5.46088 25.79 6.15984 25.7891 6.88892V11.9211H28.091C27.7513 12.1198 27.435 12.3575 27.1483 12.6295C26.4739 13.2717 26.0225 14.065 25.8398 14.9239C25.8224 15.0084 25.8071 15.0939 25.7946 15.1789L25.7875 15.2278V21.5461C25.7883 22.2752 26.073 22.9742 26.5789 23.4897C27.0849 24.0052 27.7708 24.2953 28.4863 24.2961H28.8135C29.0548 24.2855 29.2921 24.229 29.513 24.1295V24.2961H33.3132V6.88892C33.3123 6.15984 33.0277 5.46088 32.5217 4.94535C32.0158 4.42981 31.3298 4.1398 30.6143 4.13892Z"
			fill="black" />
		<path
			d="M34.1853 23.961V0.333252H38.4991L39.812 8.72325L41.0649 0.333252H45.5624V23.9627H41.5823V18.1432L40.8332 23.9627H38.5514L37.775 17.9916L37.7652 23.9833L34.1853 23.961Z"
			fill="#FFED00" />
		<path
			d="M45.2355 0.666667V23.6294H41.9097V13.0372L40.5466 23.63H38.8379L37.4569 13L37.4389 23.6483L34.5127 23.6294V0.666667H38.2202L39.8193 10.8889L41.3459 0.666667H45.235H45.2355ZM45.8893 0H40.7827L40.6982 0.566111L39.8046 6.55556L38.8663 0.561667L38.7785 0H33.8584V24.2922L34.5088 24.2961L37.4351 24.3144L38.092 24.3183V23.6489V22.9822L38.1875 23.7161L38.2627 24.295H41.1208L41.1954 23.715L41.2554 23.2483V24.295H45.8898V0H45.8893Z"
			fill="black" />
		<path
			d="M50.3596 23.9627V23.5872C49.9998 23.8133 49.61 23.9627 49.333 23.9627H49.0059C48.3771 23.962 47.7742 23.7071 47.3296 23.2541C46.885 22.801 46.6349 22.1868 46.6342 21.5461V15.2522L46.638 15.2277C46.6494 15.1488 46.6636 15.0705 46.6794 14.9944C46.9978 13.4811 48.2513 12.2166 49.906 11.7166V7.51828H49.797V11.5877H46.6347V6.88883C46.6354 6.24812 46.8855 5.63386 47.3302 5.18081C47.7748 4.72775 48.3776 4.4729 49.0064 4.47217H51.1328C51.7616 4.4729 52.3644 4.72775 52.809 5.18081C53.2537 5.63386 53.5038 6.24812 53.5045 6.88883V23.9627H50.3596ZM49.9055 21.0183V15.3516H49.7964V21.0183H49.9055Z"
			fill="#FFED00" />
		<path
			d="M51.1323 4.80558C51.4008 4.80558 51.6666 4.85947 51.9147 4.96417C52.1628 5.06886 52.3881 5.22232 52.578 5.41578C52.7679 5.60923 52.9185 5.8389 53.0212 6.09166C53.124 6.34442 53.1769 6.61533 53.1769 6.88892V23.6295H50.6868V22.9072C50.2741 23.3323 49.64 23.6295 49.333 23.6295H49.0059C48.4636 23.6295 47.9436 23.41 47.5602 23.0193C47.1767 22.6286 46.9613 22.0987 46.9613 21.5461V15.2778C46.9717 15.2067 46.9842 15.1356 46.9989 15.065C47.3114 13.5817 48.5801 12.3867 50.2327 11.9728V7.18503H49.4693V11.2545H46.9613V6.88892C46.9613 6.61533 47.0142 6.34442 47.117 6.09166C47.2197 5.8389 47.3703 5.60923 47.5602 5.41578C47.9436 5.02508 48.4636 4.80558 49.0059 4.80558H51.1323ZM49.4693 21.3517H50.2327V15.0184H49.4693V21.3517ZM51.1323 4.13892H49.0059C48.2904 4.1398 47.6044 4.42981 47.0985 4.94535C46.5925 5.46088 46.3079 6.15984 46.3071 6.88892V11.9211H48.609C48.2693 12.1198 47.953 12.3575 47.6663 12.6295C46.9919 13.2717 46.5404 14.065 46.3578 14.9239C46.3403 15.0084 46.325 15.0939 46.3125 15.1789L46.3054 15.2278V21.5461C46.3063 22.2752 46.5909 22.9742 47.0968 23.4897C47.6028 24.0052 48.2888 24.2953 49.0043 24.2961H49.3314C49.5727 24.2855 49.81 24.229 50.0309 24.1295V24.2961H53.8295V6.88892C53.8286 6.15984 53.544 5.46088 53.038 4.94535C52.5321 4.42981 51.8461 4.1398 51.1306 4.13892H51.1323Z"
			fill="black" />
		<path
			d="M54.6133 27.6666V4.47217H57.9484L57.9571 4.79383C58.3933 4.6555 59.0252 4.47217 59.3022 4.47217H59.4112C59.9896 4.47217 60.5443 4.70629 60.9533 5.12304C61.3623 5.53979 61.5921 6.10502 61.5921 6.69439V21.5555C61.5921 22.1449 61.3623 22.7101 60.9533 23.1269C60.5443 23.5436 59.9896 23.7777 59.4112 23.7777H59.3022C58.9405 23.7732 58.5795 23.7445 58.2215 23.6916C58.1261 23.6783 58.0367 23.6649 57.9571 23.6527V27.6666H54.6133ZM58.1572 20.4627V7.4255H58.0482V20.4627H58.1572Z"
			fill="#FFED00" />
		<path
			d="M59.4113 4.80558C59.9025 4.80705 60.3732 5.00653 60.7205 5.36044C61.0678 5.71436 61.2636 6.19396 61.265 6.69447V21.5556C61.2636 22.0561 61.0678 22.5357 60.7205 22.8896C60.3732 23.2435 59.9025 23.443 59.4113 23.4445H59.3022C58.9555 23.4393 58.6095 23.4114 58.2663 23.3611C57.9016 23.3111 57.6306 23.2573 57.6306 23.2573V27.3334H54.941V4.80558H57.63L57.642 5.24725C57.642 5.24725 58.9348 4.80558 59.3022 4.80558H59.4113ZM57.7211 20.7961H58.4844V7.09225H57.7211V20.7961ZM59.4113 4.13892H59.3022C59.07 4.13892 58.6627 4.23725 58.2723 4.34947L58.2669 4.13892H54.2867V28H58.2843V24.0361C58.6218 24.0826 58.9617 24.1076 59.3022 24.1111H59.4113C60.0762 24.1104 60.7137 23.8409 61.1839 23.3618C61.6541 22.8827 61.9186 22.2331 61.9193 21.5556V6.69447C61.9186 6.01692 61.6541 5.36733 61.1839 4.88823C60.7137 4.40913 60.0762 4.13965 59.4113 4.13892Z"
			fill="black" />
		<path
			d="M66.7908 23.9443L66.0259 19.8288V23.9443H62.6455V4.44434H66.0259V6.39711L66.4751 4.44434H70.0894L68.1604 13.0021L70.4651 23.9443H66.7908Z"
			fill="#FFED00" />
		<path
			d="M69.679 4.77775L67.8252 13L70.0606 23.6111H67.0619L65.6989 16.2778V23.6111H62.9727V4.77775H65.6989V9.27775L66.7348 4.77775H69.679ZM70.5006 4.11108H62.3185V24.2778H66.3531V23.3805L66.4191 23.7355L66.52 24.2783H70.8703L70.7002 23.4716L68.4953 13.0055L70.3163 4.92775L70.5006 4.11108Z"
			fill="black" />
		<path
			d="M73.2503 23.7962C72.6215 23.7955 72.0186 23.5406 71.574 23.0876C71.1294 22.6345 70.8793 22.0203 70.8785 21.3796V6.72233C70.8793 6.08162 71.1294 5.46735 71.574 5.0143C72.0186 4.56125 72.6215 4.3064 73.2503 4.30566H75.3766C76.0054 4.3064 76.6083 4.56125 77.0529 5.0143C77.4975 5.46735 77.7476 6.08162 77.7483 6.72233V14.7501H74.477V20.7501H74.5861V15.9029H77.7483V21.3796C77.7476 22.0203 77.4975 22.6345 77.0529 23.0876C76.6083 23.5406 76.0054 23.7955 75.3766 23.7962H73.2503ZM74.5861 12.1946V7.25011H74.477V12.1946H74.5861Z"
			fill="#FFED00" />
		<path
			d="M75.3766 4.63883C75.9188 4.63883 76.4389 4.85833 76.8223 5.24903C77.2058 5.63973 77.4212 6.16963 77.4212 6.72217V14.4166H74.1498V21.0833H74.9132V16.2361H77.4212V21.3794C77.4212 21.9319 77.2058 22.4618 76.8223 22.8525C76.4389 23.2432 75.9188 23.4627 75.3766 23.4627H73.2502C72.708 23.4627 72.1879 23.2432 71.8045 22.8525C71.4211 22.4618 71.2057 21.9319 71.2057 21.3794V6.72217C71.2057 6.16963 71.4211 5.63973 71.8045 5.24903C72.1879 4.85833 72.708 4.63883 73.2502 4.63883H75.3766ZM74.1498 12.5277H74.9132V6.91661H74.1498V12.5277ZM75.3766 3.97217H73.2502C72.5347 3.97305 71.8488 4.26306 71.3428 4.7786C70.8369 5.29413 70.5523 5.99309 70.5514 6.72217V21.3794C70.5523 22.1085 70.8369 22.8074 71.3428 23.323C71.8488 23.8385 72.5347 24.1285 73.2502 24.1294H75.3766C76.0921 24.1285 76.7781 23.8385 77.284 23.323C77.7899 22.8074 78.0746 22.1085 78.0754 21.3794V15.5694H74.8041V15.0833H78.0754V6.72217C78.0746 5.99309 77.7899 5.29413 77.284 4.7786C76.7781 4.26306 76.0921 3.97305 75.3766 3.97217Z"
			fill="black" />
		<path d="M79.6572 23.9443V7.27767H78.2396V4.44434H84.6732V7.27767H83.3102V23.9443H79.6572Z"
			fill="#FFED00" />
		<path
			d="M84.3456 4.77775V6.94442H82.9825V23.6111H79.9838V6.94442H78.5663V4.77775H84.3456ZM84.9999 4.11108H77.912V7.61108H79.3296V24.2778H83.6368V7.61108H84.9999V4.11108Z"
			fill="black" />
	</g>
	<defs>
		<clipPath id="clip0">
			<rect width="85" height="28" fill="white" />
		</clipPath>
	</defs>
</svg>