<svg viewBox="0 0 307.59 118.85" xmlns="http://www.w3.org/2000/svg">
    <g id="Layer_2" data-name="Layer 2">
        <g id="Layer_1-2" data-name="Layer 1">
            <g id="Group_2678" data-name="Group 2678">
                <g id="Group_2435" data-name="Group 2435">
                    <path id="Path_1681" data-name="Path 1681" fill="#ff8522"
                        d="M307.58,42.12s-.11,3.09-.34,4.5A35.08,35.08,0,0,1,287,74.06a130.2,130.2,0,0,1-23,7C241.92,85.34,73.2,115.57,62.43,117.39c-9.63,1.62-33.58,4.19-48.1-7A35.15,35.15,0,0,1,.05,83.55c-.87-18.56,9.3-37.37,              28.66-53,11-8.84,26.18-14.33,36.72-16.48A58.56,58.56,0,0,1,97,16s.25.11.55.21c.18-.24.38-.46.38-.46C102.52,10,112.36.37,126.45,0c11.81-.28,18.53,4.5,22.09,8.54A23.27,23.27,0,0,1,154.08,21s0,.36.09.75c.38,              0,.76,0,.76,0,11.76-.24,115.27-2.21,124.91-2.21,6.93,0,16.88.83,22.78,7.7A23,23,0,0,1,307.58,42.12Z" />
                </g>
                <g id="Group_2436" data-name="Group 2436">
                    <path id="Path_1682" data-name="Path 1682" fill="#ffffff"
                        d="M126.32,34.55c5.87-.26,11.62-2.89,12.1-9,.33-4.07-2.83-8.31-9.27-8.67A13.9,13.9,0,0,0,120,19.29a9.53,9.53,0,0,0-3.56,5.53,7.53,7.53,0,0,0,.93,6.53C119,33.58,122.22,34.71,126.32,34.55Z" />
                    <path id="Path_1683" data-name="Path 1683" fill="#ffffff"
                        d="M294.66,44.52a7.07,7.07,0,0,1-4.13,4l-.69.16s.6-4.1.63-5.34c.12-5.69-1.21-11.59-10.05-11.1a16.54,16.54,0,0,0-14.53,15.18v.07l0,.06a.76.76,0,0,0,0,.21c-1.34,3.51-3.81,8.48-5.58,8.69a1.05,1.05,0,0,1-1-.34,            1.86,1.86,0,0,1-.5-1.42,28.26,28.26,0,0,1,1-4.92,55.74,55.74,0,0,0,1.6-8.51c.67-6.92-3.6-8.29-8-8a12.27,12.27,0,0,0-7.08,3.13l-1.58,1.79s.74-3.43.95-4.36c-1.25.06-9.08.32-9.88.36l-3.49,14.09a8.71,8.71,0,0,            1-4.3,3.28l-.66.18-.06-.7a13.26,13.26,0,0,0-.35-2.17c-.2-1.56-1.59-7-6.86-6.54C206.53,43.56,206.91,60.33,215,58l.93-.3-.16,1c-1.08,6.65-3.94,10.19-7.83,10.72a1.92,1.92,0,0,1-1.58-.53,4.31,4.31,0,0,            1-1-3.3c.08-3.29,6.59-30.58,6.59-30.58s-11.73.42-12.6.48c-.61,2.5-3.22,13.37-3.22,13.38l-.38,1.43c-.51,1.82-.85,3-1.08,4.31v.07l0,.08a.9.9,0,0,0-.08.23c-2,5.14-5.44,10.7-8.09,11a1.59,1.59,0,0,1-1.34-.44,2.08,            2.08,0,0,1-.56-1.54v0l.23-2.23s6.71-24.47,7.15-26.06c-1.5,0-14.36.25-14.36.25l-1.26,4.46c-.34-3.64-8-8.5-13.75-3.31-6.07,5.47-7.73,13.68-8.65,21.81l-.08.32c-1.31,9.72-3.57,16.43-10.35,17.29a6,6,0,0,1-3.93-.49,            17.8,17.8,0,0,0,4.87-5.1c2.52-4.18,1.39-7.84-1.24-9.55-5.25-3.47-11,.75-12,6.1a10.72,10.72,0,0,0,1.52,7.69,15,15,0,0,1-5.78,2.49,4.07,4.07,0,0,1-3.47-1.23c-1.5-2,.55-8.56.82-9.38,0,0,            9.29-27.7,9.84-29.4l-19.62.67c-.58,1.73-2.74,8.51-5,14.75C105.07,65.29,92.35,82,79.23,85.36c-7,1.83-12.43,1.51-15.91-.64-4.71-2.9-7.4-9.87-5.59-19.58A45.63,45.63,0,0,1,62,51.76C73,28.43,90.62,33.7,89.54,35.48A18,            18,0,0,0,86.19,37c-2.82,1.51-7.36,5.91-7.54,11.38a10.74,10.74,0,0,0,2.75,8.26A9.61,9.61,0,0,0,89.14,59,13.86,13.86,0,0,0,102,45.33a13.52,13.52,0,0,0-3.49-10.2C94.63,31.05,90,29,79.8,29.31,64.05,29.73,40,41,33.13,            66.06c-2.32,8.43.74,18.6,5.79,23.25,7,6.42,15.75,8.79,31,5.92,13.62-2.58,24.78-11.83,33-21.57,0,.16,0,.3,0,.45-2,7.13.69,14.74,12.62,13.22a45.91,45.91,0,0,0,19.85-8.25,16.65,16.65,0,0,0,13.18,3.06c2.25-.34,8.06-1.91,            13.15-9.17,4-5.77,6.05-17,7.16-23.1a26,26,0,0,1,1.3-5.49,3.67,3.67,0,0,1,1.79-2.06c2.14-.9,3.25,1.19,2.81,2.74s-2.62,9.28-2.62,9.31l-.43,1.21a43.33,43.33,0,0,0-2.9,12.61,9.58,9.58,0,0,0,2.55,7.56,7.66,7.66,0,0,0,6.64,            1.7c7.5-1.11,12.82-8.71,15.35-13.14l.35-.62.52-.89.29,1.69c1.21,6.61,6.42,9.26,14.26,8.11,10.17-1.5,16.27-6.77,18.15-15.95l.09-.39.36-.14a12.33,12.33,0,0,0,2.79-1.45l.76-.52-3.61,14.71c1.44-.22,11-1.82,            11.74-1.94.21-.88,4.37-18.69,4.37-18.69.72-3.1,2.74-9,5-9.12a1.48,1.48,0,0,1,1.21.5,3.36,3.36,0,0,1,.75,2.32A29.2,29.2,0,0,1,249,48.6,61.47,61.47,0,0,0,246.86,59c-.55,6.2,4.67,6.16,6.21,5.92,3.69-.54,8.6-2.45,            12.77-11.63l.2,1a9.12,9.12,0,0,0,10.37,7.39,14.81,14.81,0,0,0,12.11-9.36l.16-.36.36-.05a8.71,8.71,0,0,0,6.3-6A6.65,6.65,0,0,0,294.66,44.52ZM136.42,72.81c-2.65-4.16-.07-8.85,2.61-8.75,2.09.11,2.93,1.4,1.76,4A15.33,15.33,            0,0,1,136.42,72.81Zm80.63-19.89a3.8,3.8,0,0,1-2.58,1.15c-1.39.24-1.73-.51-1.79-.84a4.22,4.22,0,0,1,2.21-3.74,1.58,1.58,0,0,1,1.65.1,4.51,4.51,0,0,1,.52,3.33Zm65.78-4.58a3.2,3.2,0,0,1-.54-4.09,1,1,0,0,1,1.2-.33,18.39,            18.39,0,0,1-.66,4.42Zm.84-8.51,0,.24s-4,.15-4.44,6.17a5.86,5.86,0,0,0,2.74,5.31l-.18.79c-.84,2.54-2,5.29-4.28,5.58a2.22,2.22,0,0,1-1.9-.5c-.76-.69-1.09-1.33-1-3.66.12-5.42,3-19,6.82-19.16a1.69,1.69,0,0,1,1.38.61,6.05,            6.05,0,0,1,.92,4.62Z" />
                </g>
            </g>
        </g>
    </g>
</svg>